<svg width="68" height="68" viewBox="0 0 68 68" fill="none" xmlns="http://www.w3.org/2000/svg">
<g clip-path="url(#clip0_1110_11)">
<path d="M10.7578 36.4849C12.0009 48.2109 21.9486 57.375 34 57.375C37.2717 57.3787 40.5072 56.6912 43.4948 55.3576C38.1424 53.1622 32.3319 50.2881 26.5253 46.9426C20.8516 43.6767 15.385 40.043 10.7578 36.4849ZM65.4394 45.0912C64.3105 43.5891 62.7831 41.9302 60.9238 40.1771C60.5691 41.722 60.0803 43.2329 59.4628 44.6927C63.2772 48.6107 63.8722 50.7145 63.7354 51.1275C63.4698 51.4237 61.4709 52.0426 56.0123 50.6587C55.2305 50.4603 54.3752 50.2186 53.4464 49.9335C52.8479 49.7494 52.2374 49.5506 51.6149 49.3372C52.5926 48.2157 53.4615 47.0038 54.2101 45.7181C54.2327 45.6795 54.2566 45.641 54.2791 45.6012C56.3071 42.0711 57.3745 38.0711 57.375 34C57.3755 33.1571 57.3312 32.3148 57.2422 31.4766C55.9712 19.7665 46.0328 10.625 34 10.625C28.8945 10.6221 23.9294 12.2969 19.8687 15.3916C17.4076 17.2649 15.3393 19.6044 13.782 22.2766C13.7607 22.3152 13.7368 22.3537 13.7142 22.3922C12.9741 23.6817 12.359 25.039 11.8774 26.4456C11.3825 26.0144 10.9048 25.5863 10.4444 25.1613C9.72852 24.4973 9.09367 23.8823 8.52922 23.302C4.60195 19.2831 4.13445 17.2444 4.25797 16.8672C4.54484 16.5445 6.66188 15.9986 11.9784 17.3387C12.9385 16.0743 14.0049 14.8941 15.1659 13.8112C12.661 13.0661 10.4125 12.5694 8.51859 12.3502C4.43727 11.8827 1.76641 12.6863 0.577734 14.7422C0.147422 15.4833 -0.265625 16.7463 0.216484 18.5406C0.929687 21.2048 3.47172 24.4375 7.06961 27.8242C8.21578 28.904 9.4682 29.9984 10.8043 31.0967C11.7765 31.8936 12.7965 32.6984 13.8457 33.498C14.5461 34.0292 15.261 34.5605 15.9906 35.0917C16.7202 35.623 17.4595 36.1445 18.2086 36.6563C21.5834 38.9951 25.1494 41.2409 28.6463 43.2557C29.916 43.9871 31.1839 44.6954 32.4501 45.3807C33.7162 46.066 34.9722 46.7217 36.218 47.3477C39.1266 48.8086 41.9754 50.1261 44.6994 51.2563C45.8672 51.7415 47.0099 52.1913 48.1273 52.6057C49.7064 53.1927 51.2311 53.7094 52.6841 54.145L52.8302 54.1888C56.2474 55.2062 59.1281 55.7414 61.3939 55.7826H61.625C64.4991 55.7826 66.4461 54.9352 67.413 53.2591C68.6202 51.1846 67.9548 48.4354 65.4394 45.0912Z" fill="#E2542C"/>
</g>
<defs>
<clipPath id="clip0_1110_11">
<rect width="68" height="68" fill="white"/>
</clipPath>
</defs>
</svg>
