<svg width="220" height="80" viewBox="0 0 220 80" fill="none" xmlns="http://www.w3.org/2000/svg">
<path d="M8.876 53V29.2H17.784C20.7987 29.2 23.1673 29.9253 24.89 31.376C26.6353 32.804 27.508 34.7987 27.508 37.36C27.508 39.0373 27.1113 40.488 26.318 41.712C25.5473 42.9133 24.4367 43.8427 22.986 44.5C21.5353 45.1347 19.8013 45.452 17.784 45.452H10.27L11.392 44.296V53H8.876ZM25.128 53L19.008 44.364H21.728L27.882 53H25.128ZM11.392 44.5L10.27 43.31H17.716C20.096 43.31 21.898 42.7887 23.122 41.746C24.3687 40.7033 24.992 39.2413 24.992 37.36C24.992 35.456 24.3687 33.9827 23.122 32.94C21.898 31.8973 20.096 31.376 17.716 31.376H10.27L11.392 30.186V44.5ZM40.5183 53.17C38.6596 53.17 37.0276 52.7847 35.6223 52.014C34.217 51.2207 33.1176 50.144 32.3243 48.784C31.531 47.4013 31.1343 45.826 31.1343 44.058C31.1343 42.29 31.5083 40.726 32.2563 39.366C33.027 38.006 34.0696 36.9407 35.3843 36.17C36.7216 35.3767 38.2176 34.98 39.8723 34.98C41.5496 34.98 43.0343 35.3653 44.3263 36.136C45.641 36.884 46.6723 37.9493 47.4203 39.332C48.1683 40.692 48.5423 42.2673 48.5423 44.058C48.5423 44.1713 48.531 44.296 48.5083 44.432C48.5083 44.5453 48.5083 44.67 48.5083 44.806H32.9703V43.004H47.2163L46.2643 43.718C46.2643 42.426 45.981 41.2813 45.4143 40.284C44.8703 39.264 44.1223 38.4707 43.1703 37.904C42.2183 37.3373 41.119 37.054 39.8723 37.054C38.6483 37.054 37.549 37.3373 36.5743 37.904C35.5996 38.4707 34.8403 39.264 34.2963 40.284C33.7523 41.304 33.4803 42.4713 33.4803 43.786V44.16C33.4803 45.52 33.775 46.7213 34.3643 47.764C34.9763 48.784 35.815 49.5887 36.8803 50.178C37.9683 50.7447 39.2036 51.028 40.5863 51.028C41.6743 51.028 42.683 50.8353 43.6123 50.45C44.5643 50.0647 45.3803 49.4753 46.0603 48.682L47.4203 50.246C46.627 51.198 45.6296 51.9233 44.4283 52.422C43.2496 52.9207 41.9463 53.17 40.5183 53.17ZM60.5618 53.17C58.8618 53.17 57.3318 52.7847 55.9718 52.014C54.6345 51.2433 53.5805 50.178 52.8098 48.818C52.0392 47.4353 51.6538 45.8487 51.6538 44.058C51.6538 42.2447 52.0392 40.658 52.8098 39.298C53.5805 37.938 54.6345 36.884 55.9718 36.136C57.3318 35.3653 58.8618 34.98 60.5618 34.98C62.1258 34.98 63.5198 35.3313 64.7438 36.034C65.9905 36.7367 66.9765 37.768 67.7018 39.128C68.4498 40.4653 68.8238 42.1087 68.8238 44.058C68.8238 45.9847 68.4612 47.628 67.7358 48.988C67.0105 50.348 66.0245 51.3907 64.7778 52.116C63.5538 52.8187 62.1485 53.17 60.5618 53.17ZM60.7318 51.028C62.0012 51.028 63.1345 50.7447 64.1318 50.178C65.1518 49.5887 65.9452 48.7727 66.5118 47.73C67.1012 46.6647 67.3958 45.4407 67.3958 44.058C67.3958 42.6527 67.1012 41.4287 66.5118 40.386C65.9452 39.3433 65.1518 38.5387 64.1318 37.972C63.1345 37.3827 62.0012 37.088 60.7318 37.088C59.4852 37.088 58.3632 37.3827 57.3658 37.972C56.3685 38.5387 55.5752 39.3433 54.9858 40.386C54.3965 41.4287 54.1018 42.6527 54.1018 44.058C54.1018 45.4407 54.3965 46.6647 54.9858 47.73C55.5752 48.7727 56.3685 49.5887 57.3658 50.178C58.3632 50.7447 59.4852 51.028 60.7318 51.028ZM67.4638 53V47.628L67.7018 44.024L67.3618 40.42V27.772H69.7758V53H67.4638Z" fill="#E2542C"/>
<path d="M77.0088 53V29.2H93.3288V31.376H79.5248V53H77.0088ZM79.2528 42.902V40.726H91.8328V42.902H79.2528ZM97.6824 53V35.15H99.9944V40.012L99.7564 39.162C100.255 37.802 101.094 36.7707 102.272 36.068C103.451 35.3427 104.913 34.98 106.658 34.98V37.326C106.568 37.326 106.477 37.326 106.386 37.326C106.296 37.3033 106.205 37.292 106.114 37.292C104.233 37.292 102.76 37.87 101.694 39.026C100.629 40.1593 100.096 41.78 100.096 43.888V53H97.6824ZM138.024 53V35.15H140.336V40.046L139.962 39.128C140.529 37.836 141.436 36.8273 142.682 36.102C143.929 35.354 145.414 34.98 147.136 34.98C148.587 34.98 149.856 35.2633 150.944 35.83C152.055 36.374 152.916 37.2127 153.528 38.346C154.163 39.4793 154.48 40.9073 154.48 42.63V53H152.066V42.868C152.066 40.9867 151.59 39.57 150.638 38.618C149.709 37.6433 148.394 37.156 146.694 37.156C145.425 37.156 144.314 37.4167 143.362 37.938C142.433 38.4367 141.708 39.1733 141.186 40.148C140.688 41.1 140.438 42.256 140.438 43.616V53H138.024ZM166.645 53.17C164.967 53.17 163.675 52.7167 162.769 51.81C161.862 50.9033 161.409 49.6227 161.409 47.968V31.206H163.823V47.832C163.823 48.8747 164.083 49.6793 164.605 50.246C165.149 50.8127 165.919 51.096 166.917 51.096C167.982 51.096 168.866 50.79 169.569 50.178L170.419 51.912C169.943 52.3427 169.365 52.66 168.685 52.864C168.027 53.068 167.347 53.17 166.645 53.17ZM158.213 37.156V35.15H169.263V37.156H158.213ZM174.813 53V35.15H177.227V53H174.813ZM176.037 31.206C175.539 31.206 175.119 31.036 174.779 30.696C174.439 30.356 174.269 29.948 174.269 29.472C174.269 28.996 174.439 28.5993 174.779 28.282C175.119 27.942 175.539 27.772 176.037 27.772C176.536 27.772 176.955 27.9307 177.295 28.248C177.635 28.5653 177.805 28.962 177.805 29.438C177.805 29.9367 177.635 30.356 177.295 30.696C176.978 31.036 176.559 31.206 176.037 31.206ZM191.526 53.17C189.667 53.17 188.035 52.7847 186.63 52.014C185.225 51.2207 184.125 50.144 183.332 48.784C182.539 47.4013 182.142 45.826 182.142 44.058C182.142 42.29 182.516 40.726 183.264 39.366C184.035 38.006 185.077 36.9407 186.392 36.17C187.729 35.3767 189.225 34.98 190.88 34.98C192.557 34.98 194.042 35.3653 195.334 36.136C196.649 36.884 197.68 37.9493 198.428 39.332C199.176 40.692 199.55 42.2673 199.55 44.058C199.55 44.1713 199.539 44.296 199.516 44.432C199.516 44.5453 199.516 44.67 199.516 44.806H183.978V43.004H198.224L197.272 43.718C197.272 42.426 196.989 41.2813 196.422 40.284C195.878 39.264 195.13 38.4707 194.178 37.904C193.226 37.3373 192.127 37.054 190.88 37.054C189.656 37.054 188.557 37.3373 187.582 37.904C186.607 38.4707 185.848 39.264 185.304 40.284C184.76 41.304 184.488 42.4713 184.488 43.786V44.16C184.488 45.52 184.783 46.7213 185.372 47.764C185.984 48.784 186.823 49.5887 187.888 50.178C188.976 50.7447 190.211 51.028 191.594 51.028C192.682 51.028 193.691 50.8353 194.62 50.45C195.572 50.0647 196.388 49.4753 197.068 48.682L198.428 50.246C197.635 51.198 196.637 51.9233 195.436 52.422C194.257 52.9207 192.954 53.17 191.526 53.17ZM204.464 53V35.15H206.776V40.012L206.538 39.162C207.036 37.802 207.875 36.7707 209.054 36.068C210.232 35.3427 211.694 34.98 213.44 34.98V37.326C213.349 37.326 213.258 37.326 213.168 37.326C213.077 37.3033 212.986 37.292 212.896 37.292C211.014 37.292 209.541 37.87 208.476 39.026C207.41 40.1593 206.878 41.78 206.878 43.888V53H204.464Z" fill="white"/>
<path d="M128.211 37.4417C127.4 36.4276 126.373 35.6082 125.204 35.0437C124.034 34.4792 122.754 34.184 121.455 34.1798C116.639 34.1798 112.733 38.1281 112.733 42.9986C112.733 47.8691 116.637 51.8195 121.455 51.8202C125.388 51.8202 128.714 49.1887 129.802 45.5705" stroke="white" stroke-width="0.5" stroke-linecap="round" stroke-linejoin="round"/>
<path d="M128.223 37.4339C131.85 36.6569 134.249 36.6463 134.725 37.4042C135.132 38.0495 134.108 39.1963 131.874 40.598M127.556 42.8966C125.915 43.6569 124.245 44.3528 122.55 44.9826C114.971 47.8089 108.134 48.9989 107.278 47.6389C106.73 46.7676 108.674 45.0294 112.593 43.0227" stroke="white" stroke-width="0.5" stroke-linecap="round" stroke-linejoin="round"/>
<path d="M130.201 41.8114C130.201 41.9523 130.145 42.0874 130.046 42.1871C129.946 42.2867 129.811 42.3427 129.67 42.3427C129.529 42.3427 129.394 42.2867 129.294 42.1871C129.195 42.0874 129.139 41.9523 129.139 41.8114C129.139 41.6705 129.195 41.5354 129.294 41.4358C129.394 41.3361 129.529 41.2802 129.67 41.2802C129.811 41.2802 129.946 41.3361 130.046 41.4358C130.145 41.5354 130.201 41.6705 130.201 41.8114Z" fill="white"/>
</svg>
